<svg width="28" height="23" viewBox="0 0 28 23" fill="none" xmlns="http://www.w3.org/2000/svg">
<path d="M21 0.679306C18.0837 0.679306 15.8769 2.0852 14 3.55431C12.2115 1.99534 9.91639 0.679306 7 0.679306C2.89274 0.679306 0 3.58016 0 6.74341C0 8.44038 0.846131 9.66298 1.77274 10.8108L12.6516 21.5245C13.8731 22.5861 14.1033 22.5861 15.3247 21.5245L26.2281 10.8108C27.3175 9.66298 28 8.44038 28 6.74341C28 3.5802 25.1072 0.679306 21 0.679306ZM23.6417 10.4708L18.8918 15.331L14 19.8742L9.39244 15.331L4.53943 10.4708C3.28382 9.03695 2.37107 8.06952 2.37107 6.74341C2.37107 4.27234 3.89813 3.06442 7 3.04356C9.55152 3.02631 11.6478 4.49722 14 6.24448C16.0878 4.60048 18.4485 3.04356 21 3.04356C24.0196 3.04356 25.7068 4.27234 25.7068 6.74341C25.7068 8.06952 25.0006 9.06637 23.6417 10.4708Z" fill="url(#paint0_linear_18_476)"/>
<defs>
<linearGradient id="paint0_linear_18_476" x1="2.37834e-08" y1="5.54861" x2="27.9552" y2="7.05096" gradientUnits="userSpaceOnUse">
<stop offset="0.0278512" stop-color="#FF4D62"/>
<stop offset="1" stop-color="#E96200"/>
</linearGradient>
</defs>
</svg>
