<svg width="61" height="60" viewBox="0 0 61 60" fill="none" xmlns="http://www.w3.org/2000/svg">
<path d="M45.2236 49.9849H3.97363C3.47635 49.9849 2.99944 49.7906 2.64781 49.4448C2.29618 49.0991 2.09863 48.6301 2.09863 48.1411V3.89111C2.09863 3.40212 2.29618 2.93316 2.64781 2.58739C2.99944 2.24161 3.47635 2.04736 3.97363 2.04736H45.2236C45.7209 2.04736 46.1978 2.24161 46.5495 2.58739C46.9011 2.93316 47.0986 3.40212 47.0986 3.89111V48.1411C47.0986 48.6301 46.9011 49.0991 46.5495 49.4448C46.1978 49.7906 45.7209 49.9849 45.2236 49.9849ZM5.84863 46.2974H43.3486V5.73486H5.84863V46.2974Z" fill="url(#paint0_linear_28_195)"/>
<path d="M56.4736 57.3599H15.2236C14.7264 57.3599 14.2494 57.1656 13.8978 56.8198C13.5462 56.4741 13.3486 56.0051 13.3486 55.5161C13.3486 55.0271 13.5462 54.5582 13.8978 54.2124C14.2494 53.8666 14.7264 53.6724 15.2236 53.6724H54.5986V13.1099H52.7236C52.2264 13.1099 51.7494 12.9156 51.3978 12.5698C51.0462 12.2241 50.8486 11.7551 50.8486 11.2661C50.8486 10.7771 51.0462 10.3082 51.3978 9.96239C51.7494 9.61662 52.2264 9.42236 52.7236 9.42236H56.4736C56.9709 9.42236 57.4478 9.61662 57.7995 9.96239C58.1511 10.3082 58.3486 10.7771 58.3486 11.2661V55.5161C58.3486 56.0051 58.1511 56.4741 57.7995 56.8198C57.4478 57.1656 56.9709 57.3599 56.4736 57.3599Z" fill="url(#paint1_linear_28_195)"/>
<path d="M3.97395 40.508C3.48206 40.5059 3.01069 40.3139 2.66145 39.9733C2.31223 39.6278 2.11621 39.1605 2.11621 38.6734C2.11621 38.1864 2.31223 37.7191 2.66145 37.3736L10.2552 29.7036C11.0963 28.8589 12.2184 28.3401 13.4165 28.2419C14.6145 28.1437 15.8085 28.4728 16.7802 29.1689L23.5114 33.9627C23.7593 34.1354 24.0616 34.2154 24.3641 34.1884C24.6666 34.1613 24.9494 34.029 25.1614 33.8152L32.0989 26.9564C33.0602 26.0439 34.3441 25.5339 35.6802 25.5339C37.0163 25.5339 38.3002 26.0439 39.2614 26.9564L46.5364 34.2024C46.8413 34.5572 46.9986 35.0121 46.9771 35.4761C46.9556 35.9401 46.7568 36.379 46.4205 36.7051C46.0841 37.0312 45.635 37.2204 45.1629 37.235C44.6907 37.2495 44.2304 37.0883 43.8739 36.7836L36.5989 29.5377C36.4781 29.4127 36.3327 29.3132 36.1715 29.2452C36.0103 29.1772 35.8368 29.1422 35.6614 29.1422C35.4861 29.1422 35.3125 29.1772 35.1514 29.2452C34.9902 29.3132 34.8448 29.4127 34.7239 29.5377L27.7677 36.4517C26.927 37.2958 25.8065 37.8157 24.6094 37.9171C23.4124 38.0186 22.2179 37.695 21.2427 37.0049L14.5114 32.2111C14.2672 32.0324 13.9653 31.9469 13.6618 31.9706C13.3583 31.9944 13.0739 32.1257 12.8614 32.3402L5.3052 39.9549C5.13154 40.1291 4.92446 40.2677 4.69594 40.3626C4.46743 40.4576 4.22202 40.507 3.97395 40.508Z" fill="url(#paint2_linear_28_195)"/>
<path d="M26.1924 23.9142C24.709 23.9142 23.259 23.4817 22.0256 22.6713C20.7922 21.8609 19.8309 20.7091 19.2633 19.3615C18.6956 18.0139 18.5471 16.531 18.8365 15.1004C19.1259 13.6698 19.8402 12.3557 20.8891 11.3243C21.938 10.2929 23.2744 9.59046 24.7292 9.3059C26.1841 9.02133 27.6921 9.16738 29.0625 9.72558C30.433 10.2838 31.6043 11.229 32.4284 12.4419C33.2525 13.6547 33.6924 15.0806 33.6924 16.5392C33.6924 17.5077 33.4984 18.4667 33.1215 19.3615C32.7446 20.2563 32.1921 21.0693 31.4957 21.7541C30.7992 22.4389 29.9725 22.9822 29.0625 23.3528C28.1526 23.7234 27.1773 23.9142 26.1924 23.9142ZM26.1924 12.8517C25.4507 12.8517 24.7257 13.068 24.109 13.4731C23.4923 13.8783 23.0117 14.4542 22.7278 15.128C22.444 15.8018 22.3697 16.5433 22.5144 17.2586C22.6591 17.9739 23.0163 18.6309 23.5407 19.1466C24.0652 19.6624 24.7334 20.0136 25.4608 20.1558C26.1882 20.2981 26.9422 20.2251 27.6274 19.946C28.3127 19.6669 28.8983 19.1943 29.3104 18.5879C29.7225 17.9814 29.9424 17.2685 29.9424 16.5392C29.9424 15.5612 29.5473 14.6233 28.844 13.9317C28.1408 13.2402 27.1869 12.8517 26.1924 12.8517Z" fill="url(#paint3_linear_28_195)"/>
<defs>
<linearGradient id="paint0_linear_28_195" x1="2.09863" y1="12.8333" x2="47.088" y2="14.5875" gradientUnits="userSpaceOnUse">
<stop offset="0.0278512" stop-color="#FF4D62"/>
<stop offset="1" stop-color="#E96200"/>
</linearGradient>
<linearGradient id="paint1_linear_28_195" x1="13.3486" y1="20.2083" x2="58.338" y2="21.9625" gradientUnits="userSpaceOnUse">
<stop offset="0.0278512" stop-color="#FF4D62"/>
<stop offset="1" stop-color="#E96200"/>
</linearGradient>
<linearGradient id="paint2_linear_28_195" x1="2.11621" y1="28.9031" x2="46.3516" y2="34.408" gradientUnits="userSpaceOnUse">
<stop offset="0.0278512" stop-color="#FF4D62"/>
<stop offset="1" stop-color="#E96200"/>
</linearGradient>
<linearGradient id="paint3_linear_28_195" x1="18.6924" y1="12.4829" x2="33.6849" y2="13.1162" gradientUnits="userSpaceOnUse">
<stop offset="0.0278512" stop-color="#FF4D62"/>
<stop offset="1" stop-color="#E96200"/>
</linearGradient>
</defs>
</svg>
